<svg width="50" height="30" viewBox="0 0 50 30" fill="none" xmlns="http://www.w3.org/2000/svg">
<path d="M16.3905 25.4604L6.21563 14.9999L16.3905 4.53943C16.6321 4.29395 16.824 4.00159 16.955 3.6793C17.086 3.35701 17.1534 3.0112 17.1534 2.66191C17.1534 2.31262 17.086 1.96681 16.955 1.64452C16.824 1.32223 16.6321 1.02986 16.3905 0.784384C16.1517 0.535907 15.8673 0.33863 15.5538 0.203986C15.2403 0.0693414 14.904 9.12421e-06 14.5642 9.12421e-06C14.2245 9.12421e-06 13.8881 0.0693414 13.5746 0.203986C13.2611 0.33863 12.9767 0.535907 12.738 0.784384L0.762967 13.0956C0.52111 13.3437 0.32923 13.6385 0.19831 13.9629C0.0673898 14.2874 1.23045e-06 14.6352 1.23045e-06 14.9865C1.23045e-06 15.3378 0.0673898 15.6856 0.19831 16.0101C0.32923 16.3346 0.52111 16.6293 0.762967 16.8775L12.738 29.2155C13.7554 30.2615 15.373 30.2615 16.3905 29.2155C16.6321 28.97 16.824 28.6776 16.955 28.3553C17.086 28.033 17.1534 27.6872 17.1534 27.3379C17.1534 26.9887 17.086 26.6428 16.955 26.3206C16.824 25.9983 16.6321 25.7059 16.3905 25.4604ZM33.6094 25.4604L43.7842 14.9999L33.6094 4.53943C33.3677 4.29395 33.1758 4.00159 33.0449 3.6793C32.9139 3.35701 32.8464 3.0112 32.8464 2.66191C32.8464 2.31262 32.9139 1.96681 33.0449 1.64452C33.1758 1.32223 33.3677 1.02986 33.6094 0.784384C33.8482 0.535907 34.1326 0.33863 34.446 0.203986C34.7595 0.0693414 35.0959 9.12421e-06 35.4356 9.12421e-06C35.7754 9.12421e-06 36.1118 0.0693414 36.4253 0.203986C36.7387 0.33863 37.0231 0.535907 37.2619 0.784384L49.2369 13.0956C50.2544 14.1416 50.2544 15.8314 49.2369 16.8775L37.2619 29.2155C37.0231 29.4639 36.7387 29.6612 36.4253 29.7959C36.1118 29.9305 35.7754 29.9998 35.4356 29.9998C35.0959 29.9998 34.7595 29.9305 34.446 29.7959C34.1326 29.6612 33.8482 29.4639 33.6094 29.2155C33.3677 28.97 33.1758 28.6776 33.0449 28.3553C32.9139 28.033 32.8464 27.6872 32.8464 27.3379C32.8464 26.9887 32.9139 26.6428 33.0449 26.3206C33.1758 25.9983 33.3677 25.7059 33.6094 25.4604Z" fill="#C59B9B"/>
</svg>
